<?xml version="1.0" encoding="utf-8"?>
<!-- Generator: Adobe Illustrator 23.1.1, SVG Export Plug-In . SVG Version: 6.00 Build 0)  -->
<svg version="1.1" id="Layer_1" xmlns="http://www.w3.org/2000/svg" xmlns:xlink="http://www.w3.org/1999/xlink" x="0px" y="0px"
	 viewBox="0 0 191 45" style="enable-background:new 0 0 191 45;" xml:space="preserve">
<style type="text/css">
	.st0{fill:#FFD247;}
</style>
<g id="Endo-web-logo" transform="translate(-457.881 -424.143)">
	<path id="Elements_5_" class="st0" d="M560.6,464.3h76.1c1.7,0,3.1-1.4,3.1-3.1c0,0,0,0,0,0V459c0-1.7-1.4-3.1-3.1-3.1c0,0,0,0,0,0
		h-76.1c-1.7,0-3.1,1.4-3.1,3.1c0,0,0,0,0,0v2.2C557.5,462.9,558.9,464.3,560.6,464.3z"/>
	<path id="Logo_6_" class="st0" d="M494.3,459.6l-0.3,0.3c-0.4,0.4-0.8,0.8-1.2,1.2c-0.8,0.8-1.6,1.5-2.4,2.1
		c-1.5,1.3-3.2,2.3-5,3.1c-0.5,0.3-0.3,0-0.1-0.2s0.4-0.6-0.2-0.4c-0.7,0.3-1.4,0.6-2.1,0.9c-0.8,0.2-1.6,0.4-2.4,0.5
		c-0.6-0.2-0.3-0.4,0-0.6c0.3-0.2,0.5-0.4,0-0.6c-0.3-0.1-0.7-0.1-1.3-0.2c-0.6-0.1-1.2-0.3-1.7-0.6c-0.5-0.3-1-0.7-1.4-1.2
		c-0.3-0.3-0.5-0.7-0.7-1.1c-0.4-0.7-0.4-1-0.3-0.9c0.2,0.3,0.5,0.6,0.7,0.9c0.4,0.6,1,1.1,1.6,1.5c0.6,0.4,1.4,0.7,2.1,0.7
		c-0.4-0.2,0-0.1,0.6-0.1s1.3-0.2,1.3-0.3c0-0.3-0.3-0.6-0.6-0.6c-0.2-0.1-0.6-0.2-0.9-0.3c-0.5-0.1-0.9-0.4-1.3-0.6
		c-0.2-0.2-0.2-0.3,0-0.4c0.1-0.1,0.3-0.2,0.4-0.3c-0.3-0.2-0.6-0.5-0.9-0.8c-0.3-0.4-0.6-0.9-0.8-1.4c-0.5-1.3-0.9-2.6-1.1-4
		c-0.2-1.5-0.4-3.1-0.4-4.6l0,0c2.3-1.5,4.6-3.2,6.8-5c2-1.6,3.8-3.4,5.5-5.3c0.2-0.2,0.4-0.5,0.6-0.8c0.2-0.3,0.4-0.5,0.6-0.8
		l0.6-0.8c0.1-0.1,0.2-0.3,0.3-0.4l0.3-0.4l0.5-0.9l0.5-0.9l0.2-0.5l0.2-0.5c0.1-0.2,0.1-0.3,0.2-0.5c0.1-0.2,0.1-0.3,0.2-0.5
		c0.3-0.8,0.4-1.6,0.5-2.4c0-0.5,0.1-0.9,0-1.4c0-0.1,0-0.3,0-0.4l-0.1-0.4c-0.1-0.3-0.1-0.6-0.2-0.9c-0.4-1.1-1-2.1-2-2.9
		c-0.2-0.2-0.5-0.3-0.7-0.5c-0.3-0.1-0.5-0.3-0.8-0.4c-0.1-0.1-0.3-0.1-0.4-0.2c-0.1,0-0.3-0.1-0.4-0.1l-0.2-0.1l-0.2,0l-0.4-0.1
		c-0.9-0.1-1.8-0.1-2.8,0.1c-0.8,0.2-1.6,0.4-2.3,0.7c-1.4,0.6-2.6,1.4-3.8,2.3c-2.1,1.8-3.9,4-5.1,6.5c-1.2,2.4-2.2,4.9-2.7,7.5
		c-0.5,2.4-0.8,4.9-0.9,7.3c-0.3,0.2-0.5,0.3-0.8,0.5c-1.4,0.8-2.8,1.7-4,2.7c0.9-0.5,1.8-1,2.7-1.6c-0.1,0.1-0.2,0.2-0.3,0.2
		c0.1-0.1,0.2-0.1,0.3-0.2l0.1,0.2c-1.9,1.1-4,2-5.9,3.1c0.1,0.2,0.2,0.3-0.7,0.9c0.9-0.5,2.1-1.1,3.3-1.7c1.2-0.6,2.3-1.3,3.3-1.7
		l0.2,0.3c-0.9,0.6-2.1,1.2-3.3,1.8c-1.2,0.6-2.4,1.2-3.3,1.7l0.2,0.5c-0.6,0.4-1.2,0.8-1.9,1c1-0.5,2.9-1.4,3.8-1.9
		c0.1,0.1,0.2,0.3,0.2,0.4c-0.6,0.5-1.2,0.8-1.8,1.1c0.1,0.2-0.7,0.9,0.3,0.6c1-0.5,1.9-1,2.9-1.5c-3.7,2.1-5.4,3.5-5.3,3.9
		c0.9-0.6,1.1-0.2,2-0.8c-1.4,0.9-2.8,1.8-3.3,2.2c-0.1,0-0.1,0.1-0.2,0.2c0,0-0.1,0.1-0.1,0.1c0,0.1,0,0.1,0.2,0.1
		c0.6-0.2,1.3-0.4,1.9-0.7c3.4-1.6,6.6-3.2,9.9-5c0.1,0.6,0.1,1.1,0.2,1.6c0.2,1.3,0.5,2.6,0.9,3.9c0.4,1.4,1,2.7,1.9,4
		c0.5,0.7,1,1.3,1.7,1.9c0.7,0.6,1.4,1.1,2.3,1.4c0.8,0.3,1.7,0.5,2.6,0.6c0.8,0,1.6,0,2.4-0.2c1.4-0.3,2.8-0.8,4-1.4
		c1.2-0.6,2.3-1.3,3.3-2.1c2-1.5,3.9-3.1,5.6-4.9l0,0L494.3,459.6z M476.4,442.5c0.3-1.5,0.8-2.9,1.4-4.2c0.6-1.3,1.3-2.6,2.1-3.7
		c0.8-1.1,1.7-2.1,2.8-2.9c0.8-0.6,1.7-1.1,2.7-1.4c0.4-0.1,0.8-0.1,1.2-0.1c0,0,0.1,0,0.1,0c0,0,0.1,0,0.1,0c0.1,0,0.1,0.1,0.2,0.1
		c0.1,0.1,0.1,0.1,0.1,0.2c0,0,0,0.1,0,0.1v0.2c0,0.5-0.1,0.9-0.2,1.3c-0.2,0.6-0.4,1.1-0.7,1.6l-0.2,0.4c-0.1,0.1-0.1,0.3-0.2,0.4
		l-0.5,0.8c-0.8,1.1-1.6,2.1-2.5,3.1c-0.9,1-1.9,2-2.9,2.8c-1.3,1.1-2.6,2.2-3.9,3.2C476.1,443.9,476.3,443.2,476.4,442.5z"/>
	<g id="a_Női_Egészségért_6_" transform="translate(562.723 457.202)">
		<path id="Path_800" d="M1.7,4.4L1.7,4.1c0-0.1,0-0.1,0-0.2C1.6,4.1,1.5,4.2,1.4,4.3C1.2,4.4,1.1,4.4,0.9,4.4
			c-0.2,0-0.4-0.1-0.6-0.2C0.2,4,0.2,3.8,0.2,3.6c0-0.2,0.1-0.5,0.3-0.6c0.2-0.2,0.5-0.2,0.8-0.2h0.4V2.5c0-0.1,0-0.3-0.1-0.4
			C1.4,2,1.3,1.9,1.2,1.9C1.1,1.9,1,2,0.9,2.1C0.8,2.1,0.8,2.3,0.8,2.4H0.3v0c0-0.2,0.1-0.4,0.2-0.6C0.7,1.6,1,1.5,1.2,1.5
			c0.2,0,0.5,0.1,0.7,0.2C2.1,2,2.2,2.2,2.1,2.5v1.3c0,0.1,0,0.2,0,0.3c0,0.1,0,0.2,0.1,0.3L1.7,4.4L1.7,4.4z M1.1,4
			c0.1,0,0.3,0,0.4-0.1c0.1-0.1,0.2-0.2,0.2-0.3V3.1H1.2c-0.1,0-0.3,0.1-0.4,0.2C0.7,3.3,0.7,3.5,0.7,3.6c0,0.1,0,0.2,0.1,0.3
			C0.8,4,0.9,4,1.1,4L1.1,4z"/>
		<path id="Path_801" d="M7,4.4H6.4L5,1.6h0v2.7H4.5V0.7H5l1.4,2.7h0V0.7H7V4.4z"/>
		<path id="Path_802" d="M7.8,3c0-0.4,0.1-0.7,0.3-1c0.3-0.4,1-0.5,1.4-0.2C9.5,1.8,9.6,1.9,9.6,2c0.2,0.3,0.3,0.6,0.3,1V3
			c0,0.4-0.1,0.7-0.3,1C9.5,4.3,9.1,4.4,8.8,4.4C8.5,4.4,8.2,4.3,8,4C7.8,3.8,7.7,3.4,7.8,3L7.8,3z M8.7,0.4h0.5L8.7,1.1H8.3
			L8.7,0.4z M8.3,3c0,0.2,0,0.5,0.1,0.7C8.5,3.9,8.6,4,8.8,4C9,4,9.2,3.9,9.3,3.7C9.4,3.5,9.4,3.3,9.4,3V2.9c0-0.2,0-0.5-0.2-0.7
			C9.2,2.1,9,1.9,8.8,1.9C8.6,1.9,8.4,2,8.4,2.2C8.3,2.5,8.2,2.7,8.3,3L8.3,3L8.3,3z M9.5,0.4H10v0L9.4,1.1H8.9v0L9.5,0.4z"/>
		<path id="Path_803" d="M11.2,0.9h-0.5V0.4h0.5V0.9z M11.2,4.4h-0.5V1.6h0.5V4.4z"/>
		<path id="Path_804" d="M15.3,2.6h-1.3V4h1.5v0.4h-2V0.7h2v0.4h-1.5v1.2h1.3L15.3,2.6L15.3,2.6z"/>
		<path id="Path_805" d="M16.1,3c0-0.4,0.1-0.7,0.2-1.1c0.1-0.3,0.4-0.4,0.7-0.4c0.1,0,0.3,0,0.4,0.1c0.1,0.1,0.2,0.2,0.3,0.3
			l0.1-0.3h0.4v2.8c0,0.3-0.1,0.6-0.3,0.8c-0.2,0.2-0.5,0.3-0.8,0.3c-0.1,0-0.3,0-0.4-0.1c-0.1,0-0.2-0.1-0.4-0.2l0.1-0.4
			C16.6,5,16.7,5,16.8,5c0.1,0,0.2,0,0.3,0c0.2,0,0.3-0.1,0.4-0.2c0.1-0.2,0.1-0.3,0.1-0.5V4.1c-0.1,0.1-0.2,0.2-0.3,0.2
			c-0.1,0.1-0.2,0.1-0.4,0.1c-0.3,0-0.5-0.1-0.7-0.4C16.2,3.8,16.1,3.5,16.1,3L16.1,3z M16.7,3.1c0,0.2,0,0.5,0.1,0.7
			C16.9,3.9,17,4,17.2,4c0.1,0,0.2,0,0.3-0.1c0.1-0.1,0.1-0.1,0.2-0.2V2.3c0-0.1-0.1-0.2-0.2-0.3C17.4,2,17.3,2,17.2,2
			c-0.2,0-0.4,0.1-0.4,0.3C16.7,2.5,16.7,2.8,16.7,3.1L16.7,3.1L16.7,3.1z"/>
		<path id="Path_806" d="M20,4.4c-0.3,0-0.6-0.1-0.8-0.4c-0.2-0.3-0.3-0.6-0.3-1V2.9c0-0.4,0.1-0.7,0.3-1c0.2-0.2,0.5-0.4,0.8-0.4
			c0.3,0,0.6,0.1,0.7,0.3C20.9,2.2,21,2.5,21,2.8v0.3h-1.5c0,0.2,0,0.5,0.2,0.7C19.7,4,19.9,4.1,20.1,4c0.1,0,0.3,0,0.4-0.1
			c0.1,0,0.2-0.1,0.3-0.2l0.2,0.3c-0.1,0.1-0.2,0.2-0.4,0.2C20.4,4.4,20.2,4.4,20,4.4z M20,2c-0.1,0-0.3,0.1-0.4,0.2
			c-0.1,0.2-0.2,0.4-0.2,0.5h1V2.7c0-0.2,0-0.4-0.1-0.5C20.3,2,20.1,1.9,20,2L20,2z M20.1,0.4h0.6v0l-0.6,0.7h-0.4L20.1,0.4z"/>
		<path id="Path_807" d="M23,3.7c0-0.1,0-0.2-0.1-0.3c-0.1-0.1-0.3-0.2-0.4-0.2C22.2,3.1,22,3,21.8,2.8c-0.1-0.1-0.2-0.3-0.2-0.5
			c0-0.2,0.1-0.4,0.2-0.6c0.2-0.2,0.4-0.2,0.7-0.2c0.3,0,0.5,0.1,0.7,0.2c0.2,0.1,0.3,0.4,0.2,0.6v0h-0.5c0-0.1,0-0.2-0.1-0.3
			c-0.1-0.1-0.2-0.1-0.3-0.1c-0.1,0-0.2,0-0.3,0.1c-0.1,0.1-0.1,0.2-0.1,0.3c0,0.1,0,0.2,0.1,0.2c0.1,0.1,0.3,0.2,0.4,0.2
			c0.2,0.1,0.5,0.2,0.6,0.4c0.1,0.1,0.2,0.3,0.2,0.5c0,0.2-0.1,0.4-0.3,0.5c-0.4,0.3-1,0.3-1.4-0.1c-0.2-0.2-0.3-0.4-0.2-0.6v0H22
			c0,0.1,0,0.3,0.2,0.4C22.3,4,22.4,4,22.5,4c0.1,0,0.2,0,0.3-0.1C22.9,3.9,23,3.8,23,3.7z"/>
		<path id="Path_808" d="M24.7,4h1.3v0.4h-1.9V4.1l1.3-2h-1.3V1.6H26v0.3L24.7,4z"/>
		<path id="Path_809" d="M28.1,3.7c0-0.1,0-0.2-0.1-0.3c-0.1-0.1-0.3-0.2-0.4-0.2c-0.2-0.1-0.4-0.2-0.6-0.3
			c-0.1-0.1-0.2-0.3-0.2-0.5c0-0.2,0.1-0.4,0.2-0.6c0.2-0.2,0.4-0.2,0.7-0.2c0.3,0,0.5,0.1,0.7,0.2c0.2,0.1,0.3,0.4,0.2,0.6v0H28
			c0-0.1,0-0.2-0.1-0.3c-0.1-0.1-0.2-0.1-0.3-0.1c-0.1,0-0.2,0-0.3,0.1c-0.1,0.1-0.1,0.2-0.1,0.3c0,0.1,0,0.2,0.1,0.2
			c0.1,0.1,0.3,0.2,0.4,0.2c0.2,0.1,0.5,0.2,0.6,0.4c0.1,0.1,0.2,0.3,0.2,0.5c0,0.2-0.1,0.4-0.3,0.5c-0.4,0.3-1,0.3-1.4-0.1
			c-0.2-0.2-0.3-0.4-0.2-0.6v0h0.5c0,0.1,0,0.3,0.2,0.4C27.4,4,27.5,4,27.6,4c0.1,0,0.2,0,0.3-0.1C28,3.9,28.1,3.8,28.1,3.7z"/>
		<path id="Path_810" d="M30.3,4.4c-0.3,0-0.6-0.1-0.8-0.4c-0.2-0.3-0.3-0.6-0.3-1V2.9c0-0.4,0.1-0.7,0.3-1c0.2-0.2,0.5-0.4,0.8-0.4
			c0.3,0,0.6,0.1,0.7,0.3c0.2,0.3,0.3,0.6,0.2,0.9v0.3h-1.5c0,0.2,0,0.5,0.2,0.7C30,4,30.2,4.1,30.4,4c0.1,0,0.3,0,0.4-0.1
			c0.1,0,0.2-0.1,0.3-0.2l0.2,0.3c-0.1,0.1-0.2,0.2-0.4,0.2C30.7,4.4,30.5,4.4,30.3,4.4z M30.3,2C30.1,2,30,2,29.9,2.2
			c-0.1,0.2-0.2,0.4-0.2,0.5h1V2.7c0-0.2,0-0.4-0.1-0.5C30.6,2,30.4,2,30.3,2L30.3,2z M30.4,0.4H31v0l-0.6,0.7H30L30.4,0.4z"/>
		<path id="Path_811" d="M31.9,3c0-0.4,0.1-0.7,0.2-1.1c0.1-0.3,0.4-0.4,0.7-0.4c0.1,0,0.3,0,0.4,0.1c0.1,0.1,0.2,0.2,0.3,0.3
			l0.1-0.3h0.4v2.8c0,0.3-0.1,0.6-0.3,0.8c-0.2,0.2-0.5,0.3-0.8,0.3c-0.1,0-0.3,0-0.4-0.1c-0.1,0-0.2-0.1-0.4-0.2l0.1-0.4
			C32.3,5,32.4,5,32.5,5c0.1,0,0.2,0,0.3,0c0.2,0,0.3-0.1,0.4-0.2c0.1-0.2,0.1-0.3,0.1-0.5V4.1c-0.1,0.1-0.2,0.2-0.3,0.2
			c-0.1,0.1-0.2,0.1-0.4,0.1c-0.3,0-0.5-0.1-0.7-0.4C31.9,3.8,31.8,3.5,31.9,3L31.9,3z M32.4,3.1c0,0.2,0,0.5,0.1,0.7
			C32.6,3.9,32.8,4,32.9,4c0.1,0,0.2,0,0.3-0.1c0.1-0.1,0.1-0.1,0.2-0.2V2.3c0-0.1-0.1-0.2-0.2-0.3C33.1,2,33,2,32.9,2
			c-0.2,0-0.4,0.1-0.4,0.3C32.4,2.5,32.4,2.8,32.4,3.1L32.4,3.1L32.4,3.1z"/>
		<path id="Path_812" d="M35.8,4.4c-0.3,0-0.6-0.1-0.8-0.4c-0.2-0.3-0.3-0.6-0.3-1V2.9c0-0.4,0.1-0.7,0.3-1c0.2-0.2,0.5-0.4,0.8-0.4
			c0.3,0,0.6,0.1,0.7,0.3c0.2,0.3,0.3,0.6,0.2,0.9v0.3h-1.5c0,0.2,0,0.5,0.2,0.7C35.4,4,35.6,4.1,35.8,4c0.1,0,0.3,0,0.4-0.1
			c0.1,0,0.2-0.1,0.3-0.2l0.2,0.3c-0.1,0.1-0.2,0.2-0.4,0.2C36.1,4.4,36,4.4,35.8,4.4z M35.7,2c-0.1,0-0.3,0.1-0.4,0.2
			c-0.1,0.2-0.2,0.4-0.2,0.5h1V2.7c0-0.2,0-0.4-0.1-0.5C36,2,35.9,1.9,35.7,2L35.7,2z M35.9,0.4h0.6v0l-0.6,0.7h-0.4L35.9,0.4z"/>
		<path id="Path_813" d="M38.6,2l-0.2,0c-0.1,0-0.2,0-0.3,0.1c-0.1,0.1-0.1,0.2-0.2,0.3v2h-0.5V1.6h0.5l0,0.4c0-0.1,0.1-0.3,0.2-0.3
			c0.1-0.1,0.2-0.1,0.3-0.1h0.1c0,0,0.1,0,0.1,0L38.6,2z"/>
		<path id="Path_814" d="M40,0.9v0.7h0.4V2H40v1.6c0,0.1,0,0.2,0.1,0.3C40.1,4,40.1,4,40.2,4h0.1c0,0,0.1,0,0.1,0l0.1,0.4
			c-0.1,0-0.1,0-0.2,0.1c-0.1,0-0.1,0-0.2,0c-0.2,0-0.3-0.1-0.5-0.2c-0.1-0.2-0.2-0.4-0.2-0.6V2h-0.4V1.6h0.4V1L40,0.9L40,0.9z"/>
		<path id="Path_815" d="M44.2,3.4h-1.1l-0.3,0.9h-0.5l1.1-3.7h0.5L45,4.4h-0.5L44.2,3.4z M43.2,3h0.9l-0.4-1.5h0L43.2,3z"/>
		<path id="Path_816" d="M46.2,4.4h-0.5v-4h0.5V4.4z"/>
		<path id="Path_817" d="M48.5,4.4l-0.1-0.2c0-0.1,0-0.1,0-0.2c-0.1,0.1-0.2,0.2-0.3,0.3c-0.1,0.1-0.3,0.1-0.4,0.1
			c-0.2,0-0.4-0.1-0.6-0.2C47,4,47,3.8,47,3.6c0-0.2,0.1-0.5,0.3-0.6c0.2-0.2,0.5-0.2,0.8-0.2h0.4V2.5c0-0.1,0-0.3-0.1-0.4
			C48.2,2,48.1,1.9,48,1.9c-0.1,0-0.2,0-0.3,0.1c-0.1,0.1-0.1,0.2-0.1,0.3h-0.5v0c0-0.2,0.1-0.4,0.2-0.6c0.2-0.2,0.4-0.3,0.7-0.2
			c0.2,0,0.5,0.1,0.7,0.2c0.2,0.2,0.3,0.4,0.2,0.7v1.3c0,0.1,0,0.2,0,0.3c0,0.1,0,0.2,0.1,0.3L48.5,4.4L48.5,4.4z M47.8,4
			c0.1,0,0.3,0,0.4-0.1c0.1-0.1,0.2-0.2,0.2-0.3V3.1H48c-0.1,0-0.3,0.1-0.4,0.2c-0.1,0.1-0.1,0.2-0.1,0.4c0,0.1,0,0.2,0.1,0.3
			C47.6,4,47.7,4,47.8,4L47.8,4z"/>
		<path id="Path_818" d="M51.8,3.1c0,0.3-0.1,0.7-0.2,1c-0.1,0.2-0.4,0.4-0.7,0.4c-0.2,0-0.5-0.1-0.6-0.3v1.3h-0.5V1.6h0.4L50.3,2
			c0.1-0.1,0.2-0.2,0.3-0.3c0.1-0.1,0.2-0.1,0.4-0.1c0.3,0,0.5,0.2,0.7,0.4C51.8,2.3,51.9,2.7,51.8,3.1L51.8,3.1z M51.3,3
			c0-0.3,0-0.5-0.1-0.8C51.1,2,50.9,1.9,50.6,2c0,0-0.1,0-0.1,0.1c-0.1,0.1-0.2,0.2-0.2,0.3v1.4c0,0.1,0.1,0.2,0.2,0.2
			C50.6,4,50.7,4,50.8,4c0.2,0,0.3-0.1,0.4-0.3C51.3,3.5,51.4,3.3,51.3,3L51.3,3z"/>
		<path id="Path_819" d="M53.2,4.4h-0.5V1.6h0.5V4.4z M53.1,0.5h0.6v0l-0.6,0.7h-0.4L53.1,0.5z"/>
		<path id="Path_820" d="M54.7,0.9v0.7h0.4V2h-0.4v1.6c0,0.1,0,0.2,0.1,0.3C54.8,4,54.9,4,54.9,4H55c0,0,0.1,0,0.1,0l0.1,0.4
			c-0.1,0-0.1,0-0.2,0.1c-0.1,0-0.1,0-0.2,0c-0.2,0-0.3-0.1-0.5-0.2c-0.1-0.2-0.2-0.4-0.2-0.6V2h-0.4V1.6h0.4V1L54.7,0.9L54.7,0.9z"
			/>
		<path id="Path_821" d="M56.7,3.5l0,0.2h0L56.7,3.5l0.6-1.9h0.5l-0.8,2.8h-0.5l-0.9-2.8h0.5L56.7,3.5z"/>
		<path id="Path_822" d="M59.8,4.4l-0.1-0.2c0-0.1,0-0.1,0-0.2c-0.1,0.1-0.2,0.2-0.3,0.3c-0.1,0.1-0.3,0.1-0.4,0.1
			c-0.2,0-0.4-0.1-0.6-0.2c-0.1-0.2-0.2-0.4-0.2-0.6c0-0.2,0.1-0.5,0.3-0.6c0.2-0.2,0.5-0.2,0.8-0.2h0.4V2.5c0-0.1,0-0.3-0.1-0.4
			c-0.1-0.1-0.2-0.1-0.3-0.1c-0.1,0-0.2,0-0.3,0.1c-0.1,0.1-0.1,0.2-0.1,0.3h-0.5v0c0-0.2,0.1-0.4,0.2-0.6c0.2-0.2,0.4-0.3,0.7-0.2
			c0.2,0,0.5,0.1,0.7,0.2c0.2,0.2,0.3,0.4,0.2,0.7v1.3c0,0.1,0,0.2,0,0.3c0,0.1,0,0.2,0.1,0.3L59.8,4.4L59.8,4.4z M59.1,4
			c0.1,0,0.3,0,0.4-0.1c0.1-0.1,0.2-0.2,0.2-0.3V3.1h-0.4c-0.1,0-0.3,0.1-0.4,0.2c-0.1,0.1-0.1,0.2-0.1,0.4c0,0.1,0,0.2,0.1,0.3
			C58.9,4,59,4,59.1,4L59.1,4z M59.5,0.4h0.6v0l-0.6,0.7H59L59.5,0.4z"/>
		<path id="Path_823" d="M61.6,1.6l0,0.4c0.1-0.1,0.2-0.3,0.3-0.3c0.1-0.1,0.3-0.1,0.4-0.1c0.2,0,0.4,0.1,0.6,0.3
			c0.2,0.2,0.2,0.5,0.2,0.8v1.7h-0.5V2.7c0-0.2,0-0.4-0.1-0.6C62.4,2,62.3,2,62.1,2c-0.1,0-0.2,0-0.3,0.1c-0.1,0.1-0.2,0.2-0.2,0.2
			v2h-0.5V1.6L61.6,1.6z"/>
		<path id="Path_824" d="M64.7,3.4l0,0.2h0l0.5-2h0.6l-1,3.2c-0.1,0.2-0.1,0.3-0.3,0.5c-0.1,0.1-0.3,0.2-0.5,0.2c0,0-0.1,0-0.1,0
			c-0.1,0-0.1,0-0.2,0l0.1-0.4c0,0,0.1,0,0.1,0H64c0.1,0,0.2,0,0.2-0.1c0.1-0.1,0.1-0.2,0.1-0.3l0.1-0.3l-0.9-2.7h0.6L64.7,3.4z"/>
		<path id="Path_825" d="M67.1,0.9v0.7h0.4V2h-0.4v1.6c0,0.1,0,0.2,0.1,0.3C67.2,4,67.3,4,67.4,4h0.1c0,0,0.1,0,0.1,0l0.1,0.4
			c-0.1,0-0.1,0-0.2,0.1c-0.1,0-0.1,0-0.2,0c-0.2,0-0.3-0.1-0.5-0.2c-0.1-0.2-0.2-0.4-0.2-0.6V2h-0.4V1.6h0.4V1L67.1,0.9L67.1,0.9z"
			/>
		<path id="Path_826" d="M68.2,3c0-0.4,0.1-0.7,0.3-1c0.3-0.4,1-0.5,1.4-0.2C69.9,1.8,70,1.9,70.1,2c0.2,0.3,0.3,0.6,0.3,1V3
			c0,0.4-0.1,0.7-0.3,1c-0.2,0.3-0.5,0.4-0.8,0.4c-0.3,0-0.6-0.1-0.8-0.4C68.3,3.8,68.2,3.4,68.2,3L68.2,3z M68.7,3
			c0,0.2,0,0.5,0.1,0.7C68.9,3.9,69.1,4,69.3,4c0.2,0,0.4-0.1,0.4-0.3c0.1-0.2,0.1-0.5,0.1-0.7V2.9c0-0.2,0-0.5-0.2-0.7
			c-0.1-0.2-0.2-0.3-0.4-0.3c-0.2,0-0.4,0.1-0.4,0.3C68.7,2.5,68.7,2.7,68.7,3L68.7,3L68.7,3z M69.5,0.4h0.6v0l-0.6,0.7H69L69.5,0.4
			z"/>
		<path id="Path_827" d="M71.6,4.4h-0.5v-4h0.5V4.4z"/>
	</g>
	<g id="Magyarország_6_" transform="translate(503.651 455.835)">
		<path id="Path_828" d="M2.6,5.4L2.6,5.4L4,0.7h1v5.8H4.2V2.4h0L2.9,6.5H2.3L1,2.3h0v4.2H0.2V0.7h1L2.6,5.4z"/>
		<path id="Path_829" d="M8.6,6.5c0-0.1-0.1-0.2-0.1-0.3c0-0.1,0-0.2,0-0.3C8.4,6,8.2,6.2,8,6.4C7.9,6.5,7.6,6.6,7.4,6.6
			c-0.3,0-0.6-0.1-0.9-0.3C6.3,6,6.2,5.6,6.2,5.3c0-0.4,0.1-0.7,0.4-0.9C7,4.1,7.4,4,7.8,4h0.7V3.6c0-0.2,0-0.4-0.2-0.6
			C8.2,2.8,8,2.7,7.8,2.7c-0.2,0-0.3,0.1-0.5,0.2C7.3,3.1,7.2,3.2,7.2,3.4H6.4v0c0-0.3,0.1-0.7,0.4-0.9c0.3-0.3,0.7-0.4,1.1-0.4
			c0.4,0,0.7,0.1,1,0.4c0.3,0.3,0.4,0.7,0.4,1.1v2c0,0.2,0,0.3,0,0.5c0,0.2,0.1,0.3,0.1,0.5L8.6,6.5L8.6,6.5z M7.6,5.9
			c0.2,0,0.4-0.1,0.6-0.2c0.2-0.1,0.3-0.3,0.3-0.5V4.5H7.8c-0.2,0-0.4,0.1-0.6,0.2C7.1,4.9,7,5.1,7,5.3c0,0.2,0,0.3,0.1,0.5
			C7.3,5.9,7.4,6,7.6,5.9L7.6,5.9z"/>
		<path id="Path_830" d="M10.5,4.4c0-0.6,0.1-1.1,0.4-1.7c0.3-0.6,1.1-0.8,1.7-0.5c0.2,0.1,0.3,0.3,0.4,0.5L13,2.2h0.7v4.3
			c0,0.5-0.1,0.9-0.4,1.3c-0.3,0.3-0.8,0.5-1.2,0.5c-0.2,0-0.4,0-0.6-0.1c-0.2,0-0.4-0.1-0.5-0.2L11,7.3c0.1,0.1,0.3,0.1,0.5,0.2
			c0.2,0,0.4,0.1,0.5,0.1c0.3,0,0.5-0.1,0.7-0.3c0.2-0.2,0.2-0.5,0.2-0.8V6.1c-0.1,0.2-0.2,0.3-0.4,0.4c-0.2,0.1-0.4,0.1-0.5,0.1
			c-0.4,0-0.8-0.2-1-0.6C10.6,5.5,10.5,5,10.5,4.4L10.5,4.4L10.5,4.4z M11.3,4.5c0,0.4,0,0.7,0.2,1.1c0.1,0.2,0.4,0.4,0.6,0.4
			c0.2,0,0.3,0,0.5-0.1c0.1-0.1,0.2-0.2,0.3-0.4V3.3c-0.1-0.2-0.2-0.3-0.3-0.4c-0.1-0.1-0.3-0.2-0.5-0.2c-0.3,0-0.5,0.2-0.6,0.5
			c-0.1,0.4-0.2,0.8-0.2,1.2L11.3,4.5L11.3,4.5z"/>
		<path id="Path_831" d="M16.2,5l0.1,0.3h0l0.8-3.1H18l-1.5,4.9c-0.1,0.3-0.2,0.5-0.4,0.7c-0.2,0.2-0.5,0.3-0.7,0.3
			c-0.1,0-0.1,0-0.2,0l-0.2-0.1L15,7.5c0,0,0.1,0,0.1,0h0.1c0.2,0,0.3-0.1,0.4-0.2c0.1-0.1,0.2-0.3,0.2-0.5L16,6.4l-1.3-4.2h0.9
			L16.2,5z"/>
		<path id="Path_832" d="M21.1,6.5c0-0.1-0.1-0.2-0.1-0.3c0-0.1,0-0.2,0-0.3c-0.1,0.2-0.3,0.4-0.5,0.5c-0.2,0.1-0.4,0.2-0.6,0.2
			c-0.3,0-0.6-0.1-0.9-0.3c-0.2-0.3-0.3-0.6-0.3-0.9c0-0.4,0.1-0.7,0.4-0.9C19.5,4.1,19.9,4,20.3,4H21V3.6c0-0.2,0-0.4-0.2-0.6
			c-0.1-0.2-0.3-0.2-0.5-0.2c-0.2,0-0.3,0.1-0.5,0.2c-0.1,0.1-0.2,0.3-0.2,0.5H19v0c0-0.3,0.1-0.7,0.4-0.9c0.3-0.3,0.7-0.4,1.1-0.4
			c0.4,0,0.7,0.1,1,0.4c0.3,0.3,0.4,0.7,0.4,1.1v2c0,0.2,0,0.3,0,0.5c0,0.2,0.1,0.3,0.1,0.5L21.1,6.5L21.1,6.5z M20.1,5.9
			c0.2,0,0.4-0.1,0.6-0.2C20.8,5.6,21,5.4,21,5.2V4.5h-0.7c-0.2,0-0.4,0.1-0.6,0.2c-0.1,0.2-0.2,0.4-0.2,0.6c0,0.2,0,0.3,0.1,0.5
			C19.8,5.9,19.9,6,20.1,5.9L20.1,5.9z"/>
		<path id="Path_833" d="M25,2.9l-0.3,0c-0.2,0-0.3,0.1-0.4,0.2c-0.1,0.1-0.2,0.3-0.3,0.4v3h-0.8V2.2h0.7l0.1,0.6
			c0.1-0.2,0.2-0.4,0.4-0.5c0.1-0.1,0.3-0.2,0.5-0.2c0,0,0.1,0,0.1,0c0,0,0.1,0,0.1,0L25,2.9z"/>
		<path id="Path_834" d="M25.8,4.3c0-0.6,0.1-1.1,0.5-1.6c0.5-0.7,1.5-0.8,2.2-0.3c0.1,0.1,0.2,0.2,0.3,0.3c0.3,0.5,0.5,1,0.5,1.6
			v0.1C29.2,5,29,5.5,28.7,6c-0.3,0.4-0.7,0.6-1.2,0.6c-0.5,0-1-0.2-1.2-0.6c-0.3-0.5-0.5-1-0.5-1.6V4.3z M26.6,4.4
			c0,0.4,0.1,0.8,0.2,1.1C26.9,5.8,27.2,6,27.5,6c0.3,0,0.5-0.2,0.7-0.4c0.2-0.3,0.2-0.7,0.2-1.1V4.3c0-0.4-0.1-0.8-0.2-1.1
			c-0.2-0.4-0.6-0.5-1-0.4C27,2.9,26.9,3,26.8,3.2c-0.2,0.3-0.2,0.7-0.2,1.1L26.6,4.4z"/>
		<path id="Path_835" d="M32.1,2.9l-0.3,0c-0.2,0-0.3,0.1-0.4,0.2c-0.1,0.1-0.2,0.3-0.3,0.4v3h-0.8V2.2h0.7l0.1,0.6
			c0.1-0.2,0.2-0.4,0.4-0.5c0.1-0.1,0.3-0.2,0.5-0.2c0,0,0.1,0,0.1,0c0,0,0.1,0,0.1,0L32.1,2.9z"/>
		<path id="Path_836" d="M35.2,5.4c0-0.2-0.1-0.3-0.2-0.4c-0.2-0.2-0.4-0.3-0.6-0.4c-0.4-0.1-0.7-0.3-1-0.5
			c-0.2-0.2-0.3-0.5-0.3-0.7c0-0.3,0.1-0.6,0.4-0.8c0.6-0.5,1.5-0.5,2.1,0C35.9,2.8,36,3.1,36,3.5v0h-0.8c0-0.2-0.1-0.4-0.2-0.5
			c-0.1-0.2-0.3-0.2-0.5-0.2c-0.2,0-0.3,0.1-0.5,0.2c-0.1,0.1-0.2,0.2-0.2,0.4c0,0.1,0,0.3,0.2,0.4c0.2,0.1,0.4,0.3,0.6,0.4
			c0.4,0.1,0.7,0.3,1,0.5C35.9,4.8,36,5.1,36,5.4c0,0.3-0.1,0.7-0.4,0.9c-0.7,0.5-1.6,0.5-2.2-0.1C33.1,6,33,5.6,33,5.3v0h0.7
			c0,0.2,0.1,0.4,0.2,0.6C34.1,6,34.3,6,34.5,6C34.7,6,34.9,6,35,5.9C35.1,5.7,35.2,5.6,35.2,5.4z"/>
		<path id="Path_837" d="M37.9,5.9H40v0.6h-3V6l2-3.2h-1.9V2.2h2.8v0.5L37.9,5.9z"/>
		<path id="Path_838" d="M43.3,6.5c0-0.1-0.1-0.2-0.1-0.3c0-0.1,0-0.2,0-0.3C43.1,6,43,6.2,42.8,6.4c-0.2,0.1-0.4,0.2-0.6,0.2
			c-0.3,0-0.6-0.1-0.9-0.3C41.1,6,41,5.6,41,5.3c0-0.4,0.1-0.7,0.4-0.9C41.7,4.1,42.2,4,42.6,4h0.7V3.6c0-0.2,0-0.4-0.2-0.6
			c-0.1-0.2-0.3-0.2-0.5-0.2c-0.2,0-0.3,0.1-0.5,0.2c-0.1,0.1-0.2,0.3-0.2,0.5h-0.8v0c0-0.3,0.1-0.7,0.4-0.9
			c0.3-0.3,0.7-0.4,1.1-0.4c0.4,0,0.7,0.1,1,0.4c0.3,0.3,0.4,0.7,0.4,1.1v2c0,0.2,0,0.3,0,0.5c0,0.2,0.1,0.3,0.1,0.5L43.3,6.5
			L43.3,6.5z M42.3,5.9c0.2,0,0.4-0.1,0.6-0.2c0.2-0.1,0.3-0.3,0.3-0.5V4.5h-0.7c-0.2,0-0.4,0.1-0.6,0.2c-0.1,0.2-0.2,0.4-0.2,0.6
			c0,0.2,0,0.3,0.1,0.5C42,5.9,42.2,6,42.3,5.9z M42.9,0.4h0.9l0,0l-0.9,1h-0.7L42.9,0.4z"/>
		<path id="Path_839" d="M45.2,4.4c0-0.6,0.1-1.1,0.4-1.7c0.3-0.6,1.1-0.8,1.7-0.5c0.2,0.1,0.3,0.3,0.4,0.5l0.1-0.5h0.7v4.3
			c0,0.5-0.1,0.9-0.4,1.3c-0.3,0.3-0.8,0.5-1.2,0.5c-0.2,0-0.4,0-0.6-0.1c-0.2,0-0.4-0.1-0.5-0.2l0.1-0.6c0.1,0.1,0.3,0.1,0.5,0.2
			c0.2,0,0.4,0.1,0.5,0.1c0.3,0,0.5-0.1,0.7-0.3c0.2-0.2,0.2-0.5,0.2-0.8V6.1c-0.1,0.2-0.2,0.3-0.4,0.4c-0.2,0.1-0.4,0.1-0.6,0.1
			c-0.4,0-0.8-0.2-1-0.6C45.4,5.5,45.2,5,45.2,4.4L45.2,4.4L45.2,4.4z M46,4.5c0,0.4,0,0.7,0.2,1.1c0.1,0.2,0.4,0.4,0.6,0.4
			c0.2,0,0.3,0,0.5-0.1c0.1-0.1,0.2-0.2,0.3-0.4V3.3c-0.1-0.2-0.2-0.3-0.3-0.4c-0.1-0.1-0.3-0.2-0.5-0.2c-0.3,0-0.5,0.2-0.6,0.5
			C46.1,3.6,46,4,46,4.4L46,4.5L46,4.5z"/>
	</g>
	<g id="ndometriózis_6_" transform="translate(494.634 428.102)">
		<path id="Path_840" d="M3,6.8l0.2,2.5c0.4-0.8,1-1.5,1.8-2.1c0.7-0.5,1.6-0.8,2.5-0.7c1.4-0.1,2.7,0.6,3.5,1.7
			c1,1.5,1.4,3.3,1.3,5.1v10.3H9.1V13.3C9.2,12.2,9,11,8.4,10c-0.4-0.7-1.2-1-2-1C5.8,9,5.1,9.2,4.6,9.5c-0.5,0.4-1,0.9-1.2,1.6
			v12.5H0.2V6.8H3z"/>
		<path id="Path_841" d="M30,15c-0.1-2.2,0.5-4.3,1.8-6.1c2.1-2.7,5.9-3.2,8.6-1.1c0.4,0.3,0.8,0.7,1.1,1.1c1.2,1.8,1.9,3.9,1.8,6.1
			v0.4c0.1,2.2-0.5,4.3-1.8,6.1c-2.1,2.7-6,3.2-8.7,1.1c-0.4-0.3-0.8-0.7-1.1-1.1c-1.2-1.8-1.9-3.9-1.8-6.1L30,15z M33.1,15.5
			c-0.1,1.5,0.2,3,0.9,4.4c0.4,1.1,1.5,1.7,2.6,1.7c1.1,0,2.2-0.7,2.6-1.7c0.6-1.4,0.9-2.9,0.9-4.4v-0.4c0.1-1.5-0.2-3-0.9-4.4
			c-0.6-1.4-2.3-2.1-3.7-1.5c-0.7,0.3-1.2,0.8-1.5,1.5c-0.6,1.4-0.9,2.9-0.9,4.4L33.1,15.5z"/>
		<path id="Path_842" d="M48.5,6.8l0.2,2.3c0.4-0.8,1-1.4,1.8-1.9c0.8-0.5,1.6-0.7,2.5-0.7c0.9,0,1.7,0.2,2.4,0.8
			c0.7,0.6,1.3,1.4,1.5,2.3c0.4-0.9,1-1.7,1.8-2.3c0.8-0.6,1.7-0.8,2.6-0.8c1.4,0,2.7,0.6,3.4,1.8c1,1.6,1.4,3.5,1.3,5.4v9.9h-3.2
			v-9.9c0.1-1.3-0.1-2.5-0.6-3.7c-0.4-0.7-1.1-1.1-1.9-1c-0.7,0-1.4,0.3-1.8,0.8c-0.5,0.6-0.9,1.3-1.1,2.1c0,0.2,0,0.4,0,0.6
			s0,0.4,0,0.6v10.5h-3.2v-10c0.1-1.2-0.1-2.5-0.7-3.6c-0.4-0.7-1.1-1.1-1.9-1.1c-0.6,0-1.2,0.2-1.7,0.6c-0.5,0.4-0.9,0.9-1.1,1.5
			v12.6h-3.2V6.8H48.5z"/>
		<path id="Path_843" d="M75.1,23.9c-1.9,0.1-3.8-0.8-4.9-2.3c-1.2-1.7-1.9-3.8-1.8-6v-0.7c-0.1-2.2,0.5-4.3,1.8-6.1
			c1.1-1.5,2.8-2.4,4.6-2.4c1.7-0.1,3.3,0.7,4.4,2c1.1,1.6,1.6,3.5,1.5,5.5v1.8h-9.1c-0.1,1.4,0.3,2.9,0.9,4.2
			c0.6,1,1.7,1.7,2.8,1.6c0.8,0,1.6-0.1,2.3-0.4c0.7-0.3,1.3-0.7,1.8-1.2l1,2c-0.6,0.6-1.4,1.1-2.2,1.5C77.3,23.8,76.2,24,75.1,23.9
			z M74.9,8.9c-0.9,0-1.7,0.5-2.2,1.3c-0.6,1-0.9,2.2-1,3.3h5.9v-0.4c0-1.1-0.2-2.1-0.7-3.1C76.5,9.3,75.7,8.9,74.9,8.9L74.9,8.9z"
			/>
		<path id="Path_844" d="M87.5,2.6v4.2h2.6v2.3h-2.6v10c-0.1,0.6,0.1,1.3,0.4,1.9c0.2,0.3,0.6,0.6,1,0.6c0.2,0,0.3,0,0.5,0
			c0.2,0,0.3-0.1,0.6-0.1l0.3,2.2c-0.3,0.2-0.7,0.3-1,0.3c-0.4,0.1-0.8,0.1-1.1,0.1c-1.1,0.1-2.1-0.4-2.8-1.2
			c-0.8-1.1-1.1-2.4-1-3.7v-10h-2.2V6.8h2.2V2.7L87.5,2.6L87.5,2.6z"/>
		<path id="Path_845" d="M99.9,9.4l-1.4-0.1c-0.6,0-1.2,0.2-1.7,0.6c-0.5,0.5-0.8,1-1,1.7v12h-3.2V6.8h2.9l0.2,2.5
			c0.3-0.8,0.8-1.5,1.4-2c0.6-0.5,1.3-0.7,2-0.7c0.3,0,0.7,0.1,1,0.2L99.9,9.4z"/>
		<rect id="Rectangle_413" x="102.2" y="0.5" width="3.2" height="3"/>
		<rect id="Rectangle_414" x="102.2" y="6.8" width="3.2" height="16.8"/>
		<path id="Path_846" d="M119.3,8.9c-2.1-2.7-5.9-3.2-8.6-1.1c-0.4,0.3-0.8,0.7-1.1,1.1c-1.2,1.8-1.9,4-1.8,6.1v0.4
			c-0.1,2.2,0.5,4.3,1.8,6.1c2.1,2.7,6,3.2,8.7,1.1c0.4-0.3,0.8-0.7,1.1-1.1c1.2-1.8,1.9-3.9,1.8-6.1V15
			C121.2,12.9,120.6,10.7,119.3,8.9z M118,15.5c0.1,1.5-0.2,3-0.9,4.4c-0.4,1-1.5,1.7-2.6,1.7c-1.1,0-2.2-0.7-2.6-1.7
			c-0.6-1.4-0.9-2.9-0.9-4.4V15c-0.1-1.5,0.2-3,0.9-4.4c0.6-1.4,2.3-2.1,3.7-1.5c0.7,0.3,1.2,0.8,1.5,1.5c0.6,1.4,0.9,2.9,0.9,4.4
			L118,15.5z"/>
		<path id="Path_847" d="M115.1,0.4h3.6l0.1,0.1L115,4.5h-2.6L115.1,0.4z"/>
		<path id="Path_848" d="M125.9,21.2h8.2v2.4h-11.7v-2l7.7-12.4h-7.6V6.8h11.2v2L125.9,21.2z"/>
		<rect id="Rectangle_415" x="136.6" y="0.5" width="3.2" height="3"/>
		<rect id="Rectangle_416" x="136.6" y="6.8" width="3.2" height="16.8"/>
		<path id="Path_849" d="M151,19.4c0-0.6-0.2-1.2-0.6-1.6c-0.7-0.6-1.6-1.1-2.5-1.5c-1.4-0.5-2.7-1.2-3.9-2.1
			c-0.8-0.7-1.3-1.8-1.3-2.9c0-1.3,0.6-2.5,1.6-3.3c1.1-0.9,2.6-1.4,4.1-1.4c1.5-0.1,3,0.5,4.2,1.5c1,0.9,1.6,2.3,1.5,3.6l0,0.1h-3
			c0-0.7-0.2-1.5-0.7-2c-0.5-0.6-1.2-0.9-1.9-0.9c-0.7,0-1.4,0.2-1.9,0.7c-0.4,0.4-0.7,1-0.7,1.6c0,0.6,0.2,1.1,0.6,1.5
			c0.8,0.6,1.6,1.1,2.5,1.4c1.5,0.5,2.8,1.2,4,2.2c0.9,0.8,1.4,1.9,1.3,3.1c0,1.3-0.6,2.6-1.6,3.4c-1.2,0.9-2.7,1.4-4.2,1.3
			c-1.6,0.1-3.2-0.5-4.4-1.6c-1-0.9-1.6-2.3-1.5-3.7l0-0.1h2.9c-0.1,0.9,0.3,1.7,0.9,2.4c0.6,0.5,1.4,0.7,2.1,0.7
			c0.7,0,1.4-0.2,2-0.6C150.7,20.6,151,20,151,19.4z"/>
		<path id="Path_850" d="M24.4,0.6v8C24,8,23.4,7.4,22.7,7c-0.7-0.4-1.4-0.5-2.1-0.5c-1.7,0-3.3,0.9-4.1,2.4c-1.1,2-1.6,4.2-1.5,6.5
			v0.3c-0.1,2.1,0.4,4.2,1.5,6c1.4,2.1,4.2,2.9,6.4,1.7c0.7-0.4,1.3-1,1.7-1.7l0.3,2h2.6v-23H24.4z M24.4,19.4
			c-0.3,0.6-0.7,1.2-1.2,1.6c-0.5,0.4-1.1,0.6-1.8,0.5c-1.1,0-2-0.6-2.5-1.6c-0.6-1.3-0.9-2.8-0.8-4.2v-0.3
			c-0.1-1.6,0.2-3.2,0.8-4.7C19.3,9.7,20.3,9,21.4,9c0.6,0,1.3,0.2,1.8,0.6c0.5,0.5,0.9,1,1.2,1.7L24.4,19.4z"/>
	</g>
</g>
</svg>
